<svg xmlns="http://www.w3.org/2000/svg" viewBox="0 0 900 1200">
  <defs>
    <radialGradient id="bg" cx="0.5" cy="0.35" r="0.85">
      <stop offset="0" stop-color="#5d3aa5"/>
      <stop offset="0.55" stop-color="#2d2640"/>
      <stop offset="1" stop-color="#0e0c14"/>
    </radialGradient>
    <radialGradient id="rim" cx="0.5" cy="0.45" r="0.5">
      <stop offset="0" stop-color="#c4b5fd" stop-opacity="0"/>
      <stop offset="0.65" stop-color="#a78bfa" stop-opacity="0.35"/>
      <stop offset="1" stop-color="#a78bfa" stop-opacity="0"/>
    </radialGradient>
  </defs>
  <rect width="900" height="1200" fill="url(#bg)"/>
  <rect width="900" height="1200" fill="url(#rim)"/>
  <path d="M280 500 Q280 350 450 360 Q620 350 620 500 Q620 700 600 870 L300 870 Q280 700 280 500 Z" fill="#0e0c14"/>
  <circle cx="450" cy="550" r="170" fill="#0e0c14"/>
  <path d="M200 1060 Q200 850 350 800 L550 800 Q700 850 700 1060 L700 1200 L200 1200 Z" fill="#0e0c14"/>
  <circle cx="420" cy="540" r="7" fill="#c4b5fd"/>
  <circle cx="480" cy="540" r="7" fill="#c4b5fd"/>
  <rect x="20" y="20" width="170" height="30" rx="4" fill="rgba(0,0,0,0.6)"/>
  <text x="105" y="40" text-anchor="middle" fill="#c4b5fd" font-family="sans-serif" font-size="13" letter-spacing="1.5">PLACEHOLDER 02</text>
</svg>
